<svg width="403" height="409" viewBox="0 0 403 409" fill="none" xmlns="http://www.w3.org/2000/svg">
<path d="M206.748 10.8768C208.73 9.97048 213.533 8.22795 215.579 8.09888L215.865 8.31085C215.704 8.98453 214.415 10.0291 213.841 10.5155C212.392 11.7427 211.262 14.1708 209.938 15.3091C203.805 24.4958 200.991 33.0427 202.891 44.2057C205.626 60.2739 218.167 70.6279 219.207 87.1319C219.724 95.3279 218.67 105.013 214.439 112.288C221.282 107.774 226.833 99.0482 229.655 91.3357C229.981 90.4439 230.984 86.2109 231.295 85.8609C232.457 77.8502 232.385 76.0259 232.436 67.9574C234.13 72.0687 236.35 78.0242 237.35 82.2287C242.254 98.1199 240.238 116.023 232.659 130.782C229.235 137.449 219.88 149.477 213.952 153.846C210.442 157.505 204.952 161.174 200.824 164.148C191.3 171.01 181.911 176.444 172.598 183.649C168.699 186.629 165.044 189.917 161.67 193.481C160.55 194.669 155.558 200.839 154.907 201.272C140.805 221.239 135.017 238.66 139.145 263.462C141.729 278.992 146.992 289.42 155.635 302.415L155.883 302.662C157.561 304.37 160.281 308.55 162.253 309.69L162.597 309.61C162.447 309.232 162.297 308.835 162.135 308.465C161.101 307.69 157.533 300.145 156.792 298.5C149.272 281.82 146.189 262.17 149.019 244.054C149.795 239.09 152.216 231.845 153.983 227.254C157.593 217.877 164.814 208.15 172.022 201.221C174.643 198.701 177.562 195.539 180.522 193.382C193.415 183.985 209.03 179.144 224.784 177.615C235.986 176.528 248.014 175.261 258.342 170.641C260.692 169.59 268.282 165.019 270.46 162.853C277.485 155.869 286.73 146.229 288.947 136.249C289.27 134.8 287.882 130.044 287.59 128.389C286.172 120.377 287.65 113.003 290.432 105.493C291.49 103.094 293.715 97.4279 295.912 96.0114C297.36 95.0784 301.414 100.259 302.422 101.318C309.912 109.172 312.72 116.59 316.417 126.546C318.987 127.079 321.95 127.118 324.602 127.418C330.542 128.116 336.87 129.39 342.395 131.728C358.637 138.602 367.965 154.532 377.03 168.724C378.807 171.507 380.402 173.894 381.672 176.967C380.622 180.553 377.219 185.701 374.422 188.206C372.432 190.239 368.537 192.812 366.04 194.177C357.98 198.046 350.957 198.533 342.19 198.936C340.535 199.013 338.71 199.452 337.357 199.523C330.412 200.901 329.317 202.325 323.722 205.141C314.407 212.249 308.707 219.688 304.34 230.608C305.002 231.05 305.7 231.58 306.442 231.832C309.717 232.798 313.135 233.632 316.575 233.63C321.195 233.628 333.102 231.837 336.527 235.361C343.415 238.57 346.802 248.193 341.762 254.522C341.077 255.535 339.7 256.585 338.727 257.402C336.402 254.092 334.89 251.252 330.552 250.44C323.955 249.203 313.442 254.892 307.112 257.755C298.839 260.83 289.56 260.462 281.26 257.677C279.82 259.975 276.075 266.737 274.667 268.247C273.795 270.035 265.265 284.11 264.497 284.447C264.392 284.05 264.397 284.087 264.47 283.697C265.485 278.275 264.192 269.39 262.715 264.02C258.647 250.18 252.525 242.493 240.912 234.503C236.825 231.944 230.825 229.548 226.016 228.916C220.448 228.183 211.782 228.057 206.347 229.325C196.389 231.648 186.258 237.527 180.296 245.921C179.907 246.47 179.059 248.113 179.094 248.747C186.255 242.856 191.579 239.364 200.709 237.178C224.997 231.364 251.197 247.631 253.855 273.32C254.21 274.65 254.19 277.407 254.25 278.842C254.587 287.12 252.857 295.677 248.621 302.86C246.242 306.895 243.112 310.777 239.786 314.105C238.063 315.827 235.296 318.307 233.79 320.115C236.996 319.267 240.149 318.48 243.491 317.442C252.155 314.752 262.38 310.572 271.502 313.367C271.56 313.405 271.617 313.44 271.675 313.475C274.05 314.277 281.797 317.76 280.942 320.915C279.1 322.75 262.997 329.41 260.09 330.155C255.447 333.02 239.385 336.16 233.734 337.265C224.869 339.095 204.865 340.685 196.221 338.757C188.42 338.912 165.035 332.842 157.48 329.652C155.143 329.407 139.854 321.72 137.882 320.17C133.365 318.017 123.745 310.522 119.755 307.35C113.386 302.075 101.256 288.497 97.3323 281.282C96.906 281.005 96.1118 279.482 95.895 278.98C90.837 271.117 83.9245 257.5 81.8045 248.383C79.8933 242.988 77.9795 234.572 77.3158 228.922C76.1375 220.57 75.7528 211.402 76.61 203.009C77.1455 197.472 77.9205 191.961 78.9335 186.491C81.3053 174.073 85.1073 163.348 80.1178 150.687C77.4085 143.812 72.887 140.473 66.2245 137.634C52.8183 133.748 42.088 138.84 30.8103 145.738C29.984 146.244 27.836 148.144 27.1428 148.178C27.0078 147.436 27.4645 146.631 27.63 145.821C28.3413 136.352 35.5918 121.661 40.726 113.762C48.5018 101.878 60.311 93.2064 73.9773 89.3447C78.131 88.1777 84.3938 87.1952 88.8293 86.2572C77.1013 82.4042 67.7898 82.4617 55.572 84.6397C58.722 81.9397 62.5595 78.5009 66.1438 76.3922C93.6473 60.2117 133.302 59.7449 157.339 82.6572C172.997 97.5827 176.196 113.281 176.628 134.102L176.477 138.848C175.975 143.214 175.367 148.22 175.159 152.567C179.934 144.299 182.54 132.974 183.569 123.448C185.252 107.93 179.158 90.8547 169.623 78.7097C166.552 74.7984 162.292 71.6999 159.208 67.9632L159.014 67.7259C158.963 60.8964 164.065 49.7084 167.394 43.8364C174.175 31.8727 184.823 21.4859 197.088 15.252C200.016 13.7639 203.634 11.7839 206.748 10.8768ZM165.684 313.362C165.227 312.582 164.007 310.457 163.058 310.612C163.298 311.637 164.051 312.222 164.812 313.012C165.064 313.125 165.417 313.312 165.684 313.362ZM341.437 163.119L347.312 162.923C342.677 156.021 339.82 149.677 330.637 150.096C329.277 150.285 325.205 150.847 324.725 151.758C323.457 154.171 328.672 161.441 330.565 162.378C333.362 163.764 338.52 162.897 341.437 163.119Z" fill="#E38D37"/>
<path d="M164.812 313.013C164.051 312.223 163.298 311.638 163.058 310.613C164.007 310.458 165.227 312.583 165.684 313.363C165.417 313.313 165.064 313.125 164.812 313.013Z" fill="#E38D37"/>
<path d="M294.168 170.294C296.488 173.976 298.283 176.781 301.258 179.916C311.455 190.93 325.72 190.384 339.418 190.569C344.073 190.632 354.635 192.154 358.948 193.664C362.205 194.144 363.028 194.006 366.04 194.177C357.98 198.046 350.958 198.533 342.19 198.936C340.535 199.013 338.71 199.452 337.358 199.523C330.413 200.901 329.318 202.325 323.723 205.141C314.408 212.249 308.708 219.688 304.34 230.608C300.688 227.879 297.185 225.725 296.198 220.732C294.42 211.76 298.043 206.189 302.358 199.179C301.42 196.452 299.478 192.552 298.343 189.735C295.585 182.895 294.933 177.499 294.168 170.294Z" fill="#E38D37"/>
<path d="M358.947 193.664C362.205 194.144 363.027 194.007 366.04 194.177C357.98 198.046 350.957 198.533 342.19 198.937C340.535 199.013 338.71 199.453 337.357 199.523C336.35 198.754 336.285 198.797 334.935 198.711C341.35 196.767 348.18 199.18 354.3 197.344C353.885 197.043 353.845 197.014 353.367 196.891L353.002 196.801C354.625 196.758 361.132 196.644 361.54 194.985C360.86 194.184 360.042 194.081 358.947 193.664Z" fill="#E38D37"/>
<path d="M334.935 198.711C336.285 198.796 336.35 198.754 337.358 199.523C330.413 200.901 329.318 202.325 323.723 205.141C325.168 201.805 331.703 199.687 334.935 198.711Z" fill="#E38D37"/>
<path d="M40.2178 132.555C57.9618 114.022 91.4183 106.771 111.073 125.879C118.709 133.302 123.134 144.761 123.206 155.313C123.222 157.725 123.187 160.137 123.1 162.548C122.545 160.308 123.054 158.569 123.083 156.582C123.092 154.839 122.993 153.098 122.788 151.367C122.114 145.822 119.688 138.213 116.711 133.572C113.472 128.524 109.539 124.189 104.351 121.138C100.919 118.803 87.6198 113.366 83.87 115.321C82.6328 117.387 83.1535 116.626 84.408 118.263C84.763 118.726 85.1525 120.357 85.3 121.012C84.73 121.747 84.0203 121.942 83.0815 122.085C83.172 123.013 81.8068 125.253 81.1708 125.733C78.1863 127.987 73.7565 128.466 70.2005 129.366C69.4805 129.547 68.9833 130.498 68.9818 130.498C66.682 130.384 59.1558 131.444 57.3945 130.573C56.342 128.78 56.9215 128.847 54.3428 127.397C52.9653 126.623 52.0265 124.617 50.8995 124.903C48.885 125.414 41.7265 131.239 40.57 132.59C39.138 134.042 36.4273 136.182 35.9823 137.96L36.2418 138.402L37.4195 138.055L37.8405 138.306C37.9405 139.033 37.9255 139.113 37.8795 139.814L38.3128 139.999C39.498 139.477 40.0918 138.808 40.87 138.479C42.6035 137.746 44.5148 137.008 46.275 136.307L45.9463 136.322C50.796 134.59 51.1728 135.045 55.888 134.639C56.2518 134.925 56.1648 134.755 56.2495 135.083C57.4098 136.396 63.402 135.978 66.4803 137.367L66.2245 137.634C52.8183 133.748 42.088 138.841 30.8103 145.739C29.984 146.244 27.836 148.144 27.1428 148.178C27.0078 147.436 27.4645 146.631 27.63 145.821L27.733 146.294L28.0618 146.358C29.448 145.597 30.618 144.212 31.6028 142.991C32.8418 139.786 37.5703 134.941 40.2178 132.555Z" fill="#E38D37"/>
<path d="M56.2495 135.083C57.4098 136.396 63.402 135.978 66.4803 137.367L66.2245 137.634C52.8183 133.748 42.088 138.841 30.8103 145.739C29.984 146.244 27.836 148.144 27.1428 148.178C27.0078 147.436 27.4645 146.631 27.63 145.821L27.733 146.294L28.0618 146.358C29.448 145.597 30.618 144.212 31.6028 142.991C33.975 142.656 37.1353 140.61 39.5438 139.692C43.567 138.157 47.9123 135.911 52.2458 135.404C53.7528 135.228 54.6828 135.417 56.2495 135.083Z" fill="#E38D37"/>
<path d="M81.8049 248.383C81.9239 246.054 79.4827 240.358 80.1557 239.17C80.4104 240.159 82.0454 244.662 82.5262 245.623L82.6729 245.231C86.3599 251.315 89.6444 257.03 93.8787 262.895C94.5614 263.84 95.7562 264.907 96.0822 265.897C95.4107 267.075 93.3809 270.517 93.8069 271.917C94.1954 273.195 96.1012 277.712 95.8954 278.98C90.8374 271.117 83.9249 257.5 81.8049 248.383Z" fill="#E38D37"/>
<path d="M367.345 175.274C370.445 175.832 379.29 178.036 381.672 176.967C380.622 180.553 377.22 185.701 374.422 188.206C373.835 186.556 371.807 184.203 370.762 182.594C368.995 179.869 368.305 178.336 367.345 175.274Z" fill="#E38D37"/>
<path d="M240.912 234.503C248.242 227.85 254.895 224.816 262.118 216.369L262.238 216.573C257.795 222.763 249.781 227.736 243.894 232.439C243.318 232.899 242.93 233.294 242.919 234.03C244.227 234.402 248.54 235.266 249.879 235.369C250.103 235.141 251.39 233.731 251.573 233.81C252.905 234.395 256.008 234.843 256.17 236.418C254.563 238.218 253.488 236.2 253.11 239.244C252.175 246.747 260.695 252.787 262.17 260.415C262.418 261.69 263.185 262.362 263.06 263.992L262.715 264.02C258.648 250.18 252.525 242.493 240.912 234.503Z" fill="#E38D37"/>
<path d="M179.095 248.747C186.256 242.856 191.58 239.364 200.71 237.179C224.998 231.364 251.198 247.631 253.855 273.32L253.718 273.638C253.373 273.558 252.015 266.633 251.688 265.648C249.569 259.498 246.139 253.88 241.634 249.187C237.399 244.803 227.846 238.355 221.639 238.238L221.729 238.252C217.878 239.668 208.51 236.296 203.989 236.968C201.878 237.281 200.199 237.983 198.219 238.624C196.481 239.187 194.194 239.052 192.695 240.255C191.016 241.575 187.909 242.728 186.283 243.898C183.214 246.107 181.415 248.013 178.012 249.891L177.925 249.806C178.288 249.095 178.37 249.016 179.095 248.747Z" fill="#E38D37"/>
<path d="M97.333 281.282C97.6165 281.357 107.311 289.252 107.794 290.395C107.934 290.727 107.986 291.502 108.716 292.287L108.927 292.322C109.208 291.59 109.114 291.402 109.629 291.17L109.869 291.5L109.649 292.147C110.358 293.385 111.149 294.74 112.021 295.902C112.128 296.045 111.96 296.982 111.908 297.237C113.604 299.46 119.642 305.51 119.756 307.35C113.387 302.075 101.257 288.497 97.333 281.282Z" fill="#E38D37"/>
<path d="M154.907 201.272L154.893 201.099C156.287 198.208 161.774 192.775 163.988 190.187C165.305 188.648 167.637 185.072 169.315 184.128C172.988 182.063 175.995 178.455 179.746 176.937L179.778 177.138L179.461 177.478C179.868 177.79 180.571 177.173 181.047 176.87C189.138 171.767 197.068 166.414 204.828 160.819C206.127 159.879 213.07 153.887 213.952 153.846C210.442 157.505 204.952 161.174 200.824 164.148C191.3 171.01 181.912 176.444 172.598 183.649C168.699 186.629 165.045 189.917 161.67 193.481C160.551 194.669 155.558 200.839 154.907 201.272Z" fill="#E38D37"/>
<path d="M263.06 263.992C264.705 265.467 263.65 272.017 265.605 272.96C266.035 273.167 266.12 272.89 267.02 273.68L266.975 274.22C270.27 278.032 272.522 269.3 274.667 268.247C273.795 270.035 265.265 284.11 264.497 284.447C264.392 284.05 264.397 284.087 264.47 283.697C265.485 278.275 264.192 269.39 262.715 264.02L263.06 263.992Z" fill="#E38D37"/>
<path d="M196.222 338.758C206.203 337.67 215.925 338.91 225.71 337.475C227.982 337.143 231.886 336.175 233.735 337.265C224.869 339.095 204.866 340.685 196.222 338.758Z" fill="#E38D37"/>
<path d="M137.883 320.17L138.296 319.96C139.74 320.67 141.577 321.727 143.092 322.237C143.122 322.247 146.968 320.865 147.293 321.172C148.428 322.247 150.373 322.927 151.256 324.155C151.124 324.49 151.087 324.555 151.08 324.922L151.297 324.872L151.597 324.165C152.205 324.385 152.284 324.365 152.752 324.827C152.817 325.57 152.832 326.847 153.2 327.42C154.92 328.39 156.303 328.125 157.421 329.422L157.48 329.652C155.143 329.407 139.854 321.72 137.883 320.17Z" fill="#E38D37"/>
<path d="M271.675 313.475C274.05 314.278 281.797 317.76 280.942 320.915C279.1 322.75 262.997 329.41 260.09 330.155C260.747 329.215 262.402 328.64 263.502 328.468L263.61 328.313L262.9 328.12L262.965 327.833C265.842 326.68 268.892 325.765 271.712 324.535C274.917 323.138 275.812 321.695 279.49 321.523L279.712 321.145C279.655 319.183 276.342 317.135 275.087 315.7C274.1 314.573 272.365 314.693 271.675 313.475Z" fill="#E38D37"/>
<path d="M307.112 257.755C306.942 257.51 306.775 257.26 306.612 257.007C308.09 255.22 308.612 255.885 310.23 255.24C313.45 253.96 316.7 251.822 319.832 250.345C320.59 250.205 321.84 250.912 322.535 250.68C327.58 248.996 333.455 249.142 336.867 253.85C337.4 254.585 338.175 255.825 338.722 256.385C340.34 256.01 339.845 254.902 341.762 254.522C341.077 255.535 339.7 256.585 338.727 257.402C336.402 254.092 334.89 251.252 330.552 250.44C323.955 249.203 313.442 254.892 307.112 257.755Z" fill="#E38D37"/>
<path d="M155.635 302.415L155.883 302.663C157.561 304.37 160.281 308.55 162.253 309.69L162.597 309.61C162.447 309.233 162.297 308.835 162.135 308.465C164.192 309.765 165.088 310.718 165.983 312.935L165.684 313.363C165.227 312.583 164.007 310.458 163.058 310.613C163.298 311.638 164.051 312.223 164.812 313.013L164.624 313.005C164.307 313.21 163.259 313.54 162.952 313.573C161.444 313.73 161.586 315.238 160.471 315.765L160.14 315.483C160.372 313.983 161.595 313.915 161.539 312.485C160.753 310.995 159.046 311.995 159.193 309.278C159.355 306.28 156.911 305.02 155.46 302.64L155.635 302.415Z" fill="#E38D37"/>
<path d="M231.295 85.861C232.457 77.8503 232.385 76.026 232.437 67.9575C234.13 72.0688 236.35 78.0243 237.35 82.2288C235.508 81.6098 236.005 74.771 233.134 76.7703L232.815 76.6775C232.766 78.707 232.74 84.3648 231.295 85.861Z" fill="#E38D37"/>
<path d="M306.442 231.832C309.717 232.799 313.135 233.632 316.575 233.63C321.195 233.628 333.102 231.837 336.527 235.362C336.31 235.57 336.322 235.512 335.997 235.617C328.99 231.484 320.402 235.234 313.172 233.736C311.887 233.47 312.047 233.458 310.657 233.65L312.355 234.31L312.407 234.524C310.315 234.745 307.57 233.673 306.442 231.832Z" fill="#E38D37"/>
<path d="M77.3164 228.922C78.9502 231.656 79.3211 234.632 80.1786 237.757C80.8844 240.289 81.7171 242.783 82.6731 245.231L82.5264 245.623C82.0457 244.662 80.4106 240.159 80.1559 239.17C79.4829 240.358 81.9242 246.054 81.8052 248.383C79.8939 242.988 77.9802 234.572 77.3164 228.922Z" fill="#E38D37"/>
<path d="M206.748 10.8768C208.731 9.97048 213.534 8.22795 215.579 8.09888L215.866 8.31085C215.704 8.98453 214.416 10.0291 213.841 10.5155C212.392 11.7427 211.263 14.1708 209.939 15.3091L209.695 14.9979C210.746 13.4186 212.544 11.5125 213.33 10.0672L213.17 9.67828C211.571 9.08218 209.251 10.5867 207.089 11.2163L206.748 10.8768Z" fill="#E38D37"/>
<path d="M296.088 107.349C298.318 108.543 301.622 112.173 302.927 114.314C306.145 119.586 307.965 126.978 307.588 133.138C307.468 135.106 307.03 143.409 305.963 144.643L305.595 144.467C292.043 131.256 290.568 125.4 296.088 107.349Z" fill="#E38D37"/>
<path d="M111.372 227.176C111.604 228.212 111.524 231.969 111.53 233.241C111.548 237.086 111.532 241.567 112.144 245.356L112.607 244.98C112.83 245.62 112.486 246.487 112.301 247.184C112.491 247.714 112.31 247.537 112.802 247.776L113.472 247.236L113.639 247.492C113.484 248.308 113.196 248.474 112.615 249.06C112.328 250.643 115.194 251.248 114.175 254.28L113.531 254.338C113.479 255.095 113.423 254.733 113.758 255.455L114.68 255.665L114.883 256.135L114.153 256.488C114.147 257.18 114.283 257.443 114.466 258.12C114.558 259.198 115.45 260.393 115.162 261.658C114.807 261.178 114.513 258.973 114.202 257.945C111.202 248.027 111.228 237.301 111.372 227.176Z" fill="#E38D37"/>
<path d="M56.9335 171.248C57.764 169.307 64.8175 155.629 65.74 155.225L65.9092 155.392C65.6677 157.162 64.8065 158.883 64.431 160.905C63.7805 164.409 63.5515 168.136 62.75 171.562C62.372 175.625 61.7897 179.72 61.5407 183.708C57.7015 245.203 83.3357 308.868 141.345 336.415C144.352 337.843 148.285 339.423 151.148 340.98C154.949 342.23 158.671 343.88 162.5 345.103C173.937 348.753 186.629 351.43 198.606 352.238C203.985 352.303 208.877 352.628 214.356 352.47C230.524 351.88 246.504 348.803 261.738 343.353C301.915 329.035 335.79 302 356.54 264.533C360.635 257.14 362.67 250.173 366.1 243.023L366.203 242.814C366.828 240.911 371.493 225.337 371.673 225.117L372.12 225.139C372.328 229.689 373.193 240.913 372.545 244.879C372.033 283.43 352.755 324.57 325.268 351.415C321.225 355.36 308.898 366.285 304.335 368.933C300.05 372.27 288.563 379.318 283.428 381.428L277.88 384.143C272.323 386.373 266.838 388.72 261.185 390.665C246.909 395.58 232.74 398.053 217.673 398.805C210.709 399.153 205.347 399.568 198.25 398.94C191.141 398.478 186.335 398.14 179.228 396.748C176.095 396.59 169.699 395.038 166.55 394.338C146.576 389.885 123.042 379.273 107.035 366.39C101.421 362.975 93.238 354.328 88.0802 349.638C84.8012 346.655 79.7 339.95 76.7862 336.28C75.0262 334.935 73.4372 332.46 72.1087 330.675C62.538 317.828 54.847 302.608 49.8055 287.405C37.4985 250.298 39.2912 206.401 56.9335 171.248Z" fill="#E38D37"/>
<path d="M276.6 383.377C277.102 383.795 277.24 383.967 277.88 384.142C272.322 386.372 266.837 388.72 261.185 390.665C246.909 395.58 232.74 398.052 217.673 398.805C210.709 399.152 205.346 399.567 198.25 398.94L198.251 398.375C198.825 398.427 198.863 398.347 199.373 398.295C203.601 397.86 208.189 398.535 212.49 398.257C221.423 397.385 231.226 397.337 240.027 395.405C248.231 393.605 257.707 390.5 265.747 387.867C269.255 386.72 272.94 384.355 276.307 383.455L276.6 383.377Z" fill="#E38D37"/>
<path d="M76.7861 336.28C78.6584 336.965 83.1456 343.375 84.9236 345.358C88.2069 349.015 90.9024 350.21 94.8954 352.79C96.5264 353.845 98.6151 358.98 100.358 360.415C102.382 362.525 105.707 363.958 107.035 366.39C101.421 362.975 93.2379 354.328 88.0801 349.638C84.8011 346.655 79.6999 339.95 76.7861 336.28Z" fill="#E38D37"/>
<path d="M151.147 340.98C154.949 342.23 158.67 343.88 162.499 345.102C173.937 348.752 186.629 351.43 198.605 352.237C195.908 353.607 179.205 349.912 175.341 349.345C174.365 349.282 170.824 347.727 170.062 347.785C164.819 348.192 160.345 346.25 155.786 343.79C154.516 343.105 152.296 341.987 151.147 340.98Z" fill="#E38D37"/>
<path d="M281.188 380.928C281.863 379.888 289.06 378.083 291.69 376.515C292.225 375.528 291.46 376.535 291.462 375.528C293.857 374.388 295.878 372.798 298.223 371.57C298.743 371.298 298.707 371.445 299.49 371.673C300.615 370.825 299.3 371.52 299.867 370.485C300.57 370.565 301.1 370.725 301.695 370.398C301.945 369.693 303.205 369.063 303.878 368.725L304.335 368.933C300.05 372.27 288.562 379.318 283.427 381.428C282.367 380.74 282.457 380.793 281.188 380.928Z" fill="#E38D37"/>
<path d="M56.9336 171.248C57.7641 169.307 64.8176 155.629 65.7401 155.225L65.9093 155.392C65.6678 157.162 64.8066 158.883 64.4311 160.905C63.7806 164.409 63.5516 168.136 62.7501 171.562C62.5966 169.688 63.4351 164.616 63.1011 163.83L63.1873 163.735L62.7588 164.611L62.4931 164.659L61.7798 163.21C59.8606 164.057 58.9783 170.298 56.9336 171.248Z" fill="#E38D37"/>
<path d="M366.202 242.813C366.827 240.911 371.492 225.337 371.672 225.116L372.12 225.139C372.327 229.689 373.192 240.912 372.545 244.879C372.41 242.651 372.532 240.238 372.325 237.997C372.145 236.076 372.96 232.334 370.74 231.442L370.377 231.669C370.022 232.548 370.117 232.239 370.487 233.384C370.247 234.554 369.742 233.648 369.17 235.206C368.407 237.284 367.585 241.177 366.202 242.813Z" fill="#E38D37"/>
<path d="M179.228 396.748C180.904 396.725 184.098 396.733 185.698 396.465C186.984 396.253 188.999 395.103 190.547 395.058C190.33 395.505 190.335 395.388 189.863 395.73C189.701 398.95 195.919 398.358 198.251 398.375L198.25 398.94C191.14 398.478 186.335 398.14 179.228 396.748Z" fill="#E38D37"/>
<path d="M281.187 380.928C282.457 380.793 282.367 380.74 283.427 381.428L277.88 384.143C277.24 383.968 277.102 383.795 276.6 383.378C277.952 382.545 279.972 381.888 281.187 380.928Z" fill="#E38D37"/>
<path d="M155.961 30.5671C156.584 30.4709 156.574 30.4206 157.143 30.6564C156.85 31.2691 153.444 33.4046 152.67 34.0276C145.859 39.5109 140.558 46.4089 137.526 54.6576C136.909 56.3384 136.488 57.8261 134.285 57.2436C125.545 54.9319 116.327 53.7694 107.273 53.6244C105.315 53.5304 102.941 53.6326 100.952 53.6669C114.892 43.7564 139.38 34.0366 155.961 30.5671Z" fill="#E38D37"/>
<path d="M322.205 94.1318C327.925 96.4236 335.193 109.391 336.26 115.133C336.73 117.656 337.043 119.958 337.305 122.499C335.685 121.98 333.528 121.519 331.813 121.056C328.938 120.315 323.445 120.44 321.055 119.035C319.568 118.161 316.428 110.859 316.233 109.13C315.878 105.975 320.36 96.4838 322.205 94.1318Z" fill="#E38D37"/>
</svg>
